<?xml version="1.0" encoding="utf-8"?>
<!-- Generator: Adobe Illustrator 15.1.0, SVG Export Plug-In  -->
<!DOCTYPE svg PUBLIC "-//W3C//DTD SVG 1.1//EN" "http://www.w3.org/Graphics/SVG/1.1/DTD/svg11.dtd" [
	<!ENTITY ns_flows "http://ns.adobe.com/Flows/1.0/">
]>
<svg version="1.1"
	 xmlns="http://www.w3.org/2000/svg" xmlns:xlink="http://www.w3.org/1999/xlink" xmlns:a="http://ns.adobe.com/AdobeSVGViewerExtensions/3.0/"
	 x="0px" y="0px" width="573px" height="573px" viewBox="-0.33 0 573 573" enable-background="new -0.33 0 573 573"
	 xml:space="preserve">
<defs>
</defs>
<circle cx="286" cy="286" r="286"/>
<path fill="#FBAF23" d="M502.79,99.72c6.63,10.36,2.96,35.28-11.06,41.28h-79.19c2.19,12,2.19,25.81,2.19,42.46
	c0,67.61-45.09,148.38-184.76,148.38c-19.81,0-35.19-2.05-48.4-3.02c-13.21,6.84-48.4,25.37-48.4,53.77c0,22.53,25.29,41,76.99,41
	c37.4,0,82.49-3.24,130.86-3.24c52.08,0,126.1,4.37,147.75,67.33C540.21,435.96,572,364.82,572,286.13
	C572,214.85,545.92,149.8,502.79,99.72z"/>
<path fill="#FBAF23" d="M246.48,303.37c59.37,0,90.19-42.14,90.19-101.91c0-66.61-30.82-122.46-97.9-122.46
	c-52.8,0-92.39,43.12-92.39,109.73C146.38,258.28,193.67,303.37,246.48,303.37z"/>
<path fill="#FBAF23" d="M134.29,474.82C91.41,465,54,431.76,54,397.49c0-4.9,4.4-8.76,16.52-16.58
	c18.69-10.78,39.6-27.29,58.28-44.93c5.5-5.87,11-13.4,11-18.32c-37.4-17.62-82.5-55.23-82.5-117.93
	C57.29,115.47,138.69,53,236.55,53c41.8,0,80.3,12.46,105.6,22.27C377.33,88.98,385.05,96,409.23,96h89.09
	c0.74,0,1.43,0.47,2.07,0.98C447.99,37.67,371.37,0.13,286,0.13C128.05,0.13,0,128.11,0,286.06c0,90.53,42.08,171.2,107.73,223.6
	C121.87,497.58,141.14,478.89,134.29,474.82z"/>
<path fill="#FBAF23" d="M404.79,505.75C395.48,494.9,349.73,491,305.85,491h-37.38c-35.19,0-79.19-3.27-94.58,5.53
	c-5.29,2.94-26.1,23.01-37.94,33.1c43.62,26.94,95.02,42.43,150.05,42.43c53.34,0,103.26-14.52,145.99-39.95
	C426.17,522.35,416.78,510.06,404.79,505.75z"/>
</svg>
